<mxfile host="Electron" agent="Mozilla/5.0 (X11; Linux x86_64) AppleWebKit/537.36 (KHTML, like Gecko) draw.io/26.0.9 Chrome/128.0.6613.186 Electron/32.2.5 Safari/537.36" version="26.0.9">
  <diagram name="Page-1" id="6sqtqyZNi8wvJHgpb98A">
    <mxGraphModel dx="1420" dy="804" grid="1" gridSize="10" guides="1" tooltips="1" connect="1" arrows="1" fold="1" page="1" pageScale="1" pageWidth="3000" pageHeight="850" math="0" shadow="0">
      <root>
        <mxCell id="0" />
        <mxCell id="1" parent="0" />
        <mxCell id="aCSEr7v2NFr17Zk5pdoT-3" style="rounded=0;orthogonalLoop=1;jettySize=auto;html=1;entryX=0.5;entryY=0;entryDx=0;entryDy=0;edgeStyle=orthogonalEdgeStyle;strokeWidth=2;" edge="1" parent="1" source="aCSEr7v2NFr17Zk5pdoT-1" target="aCSEr7v2NFr17Zk5pdoT-2">
          <mxGeometry relative="1" as="geometry" />
        </mxCell>
        <mxCell id="aCSEr7v2NFr17Zk5pdoT-6" style="edgeStyle=orthogonalEdgeStyle;shape=connector;rounded=0;orthogonalLoop=1;jettySize=auto;html=1;strokeColor=default;align=center;verticalAlign=middle;fontFamily=Helvetica;fontSize=11;fontColor=default;labelBackgroundColor=default;endArrow=classic;strokeWidth=2;" edge="1" parent="1" source="aCSEr7v2NFr17Zk5pdoT-1" target="aCSEr7v2NFr17Zk5pdoT-4">
          <mxGeometry relative="1" as="geometry" />
        </mxCell>
        <mxCell id="aCSEr7v2NFr17Zk5pdoT-19" style="edgeStyle=none;shape=connector;rounded=0;orthogonalLoop=1;jettySize=auto;html=1;strokeColor=default;align=center;verticalAlign=middle;fontFamily=Helvetica;fontSize=11;fontColor=default;labelBackgroundColor=default;endArrow=classic;" edge="1" parent="1" source="aCSEr7v2NFr17Zk5pdoT-1" target="aCSEr7v2NFr17Zk5pdoT-18">
          <mxGeometry relative="1" as="geometry" />
        </mxCell>
        <mxCell id="aCSEr7v2NFr17Zk5pdoT-1" value="Photos_cli" style="rounded=1;whiteSpace=wrap;html=1;fontSize=20;" vertex="1" parent="1">
          <mxGeometry x="600" y="120" width="120" height="60" as="geometry" />
        </mxCell>
        <mxCell id="aCSEr7v2NFr17Zk5pdoT-2" value="time" style="rounded=1;whiteSpace=wrap;html=1;fontSize=20;" vertex="1" parent="1">
          <mxGeometry x="150" y="470" width="120" height="60" as="geometry" />
        </mxCell>
        <mxCell id="aCSEr7v2NFr17Zk5pdoT-28" style="edgeStyle=none;shape=connector;rounded=0;orthogonalLoop=1;jettySize=auto;html=1;strokeColor=default;align=center;verticalAlign=middle;fontFamily=Helvetica;fontSize=11;fontColor=default;labelBackgroundColor=default;endArrow=classic;" edge="1" parent="1" source="aCSEr7v2NFr17Zk5pdoT-4" target="aCSEr7v2NFr17Zk5pdoT-27">
          <mxGeometry relative="1" as="geometry" />
        </mxCell>
        <mxCell id="aCSEr7v2NFr17Zk5pdoT-4" value="rename" style="rounded=1;whiteSpace=wrap;html=1;fontSize=20;" vertex="1" parent="1">
          <mxGeometry x="1040" y="470" width="120" height="60" as="geometry" />
        </mxCell>
        <mxCell id="aCSEr7v2NFr17Zk5pdoT-8" value="progress" style="ellipse;whiteSpace=wrap;html=1;fontFamily=Helvetica;fontSize=14;fontColor=default;labelBackgroundColor=default;" vertex="1" parent="1">
          <mxGeometry x="450" y="420" width="120" height="80" as="geometry" />
        </mxCell>
        <mxCell id="aCSEr7v2NFr17Zk5pdoT-9" value="log level&lt;div&gt;verbosity&lt;/div&gt;" style="ellipse;whiteSpace=wrap;html=1;fontFamily=Helvetica;fontSize=14;fontColor=default;labelBackgroundColor=default;" vertex="1" parent="1">
          <mxGeometry x="600" y="420" width="120" height="80" as="geometry" />
        </mxCell>
        <mxCell id="aCSEr7v2NFr17Zk5pdoT-10" value="path to photos" style="ellipse;whiteSpace=wrap;html=1;fontFamily=Helvetica;fontSize=14;fontColor=default;labelBackgroundColor=default;" vertex="1" parent="1">
          <mxGeometry x="750" y="420" width="120" height="80" as="geometry" />
        </mxCell>
        <mxCell id="aCSEr7v2NFr17Zk5pdoT-12" value="manuel suffix" style="ellipse;whiteSpace=wrap;html=1;fontFamily=Helvetica;fontSize=14;fontColor=default;labelBackgroundColor=default;" vertex="1" parent="1">
          <mxGeometry x="1130" y="660" width="120" height="80" as="geometry" />
        </mxCell>
        <mxCell id="aCSEr7v2NFr17Zk5pdoT-14" value="adjust time&lt;div&gt;with value&lt;/div&gt;" style="ellipse;whiteSpace=wrap;html=1;fontFamily=Helvetica;fontSize=14;fontColor=default;labelBackgroundColor=default;" vertex="1" parent="1">
          <mxGeometry x="40" y="660" width="120" height="80" as="geometry" />
        </mxCell>
        <mxCell id="aCSEr7v2NFr17Zk5pdoT-20" style="edgeStyle=none;shape=connector;rounded=0;orthogonalLoop=1;jettySize=auto;html=1;strokeColor=default;align=center;verticalAlign=middle;fontFamily=Helvetica;fontSize=11;fontColor=default;labelBackgroundColor=default;endArrow=classic;" edge="1" parent="1" source="aCSEr7v2NFr17Zk5pdoT-18" target="aCSEr7v2NFr17Zk5pdoT-10">
          <mxGeometry relative="1" as="geometry" />
        </mxCell>
        <mxCell id="aCSEr7v2NFr17Zk5pdoT-21" style="edgeStyle=none;shape=connector;rounded=0;orthogonalLoop=1;jettySize=auto;html=1;strokeColor=default;align=center;verticalAlign=middle;fontFamily=Helvetica;fontSize=11;fontColor=default;labelBackgroundColor=default;endArrow=classic;" edge="1" parent="1" source="aCSEr7v2NFr17Zk5pdoT-18" target="aCSEr7v2NFr17Zk5pdoT-9">
          <mxGeometry relative="1" as="geometry" />
        </mxCell>
        <mxCell id="aCSEr7v2NFr17Zk5pdoT-22" style="edgeStyle=none;shape=connector;rounded=0;orthogonalLoop=1;jettySize=auto;html=1;strokeColor=default;align=center;verticalAlign=middle;fontFamily=Helvetica;fontSize=11;fontColor=default;labelBackgroundColor=default;endArrow=classic;" edge="1" parent="1" source="aCSEr7v2NFr17Zk5pdoT-18" target="aCSEr7v2NFr17Zk5pdoT-8">
          <mxGeometry relative="1" as="geometry" />
        </mxCell>
        <mxCell id="aCSEr7v2NFr17Zk5pdoT-23" style="edgeStyle=orthogonalEdgeStyle;shape=connector;rounded=0;orthogonalLoop=1;jettySize=auto;html=1;strokeColor=default;align=center;verticalAlign=middle;fontFamily=Helvetica;fontSize=11;fontColor=default;labelBackgroundColor=default;endArrow=classic;elbow=vertical;exitX=0.75;exitY=0;exitDx=0;exitDy=0;entryX=0;entryY=0.5;entryDx=0;entryDy=0;strokeWidth=2;" edge="1" parent="1" source="aCSEr7v2NFr17Zk5pdoT-2" target="aCSEr7v2NFr17Zk5pdoT-18">
          <mxGeometry relative="1" as="geometry" />
        </mxCell>
        <mxCell id="aCSEr7v2NFr17Zk5pdoT-24" style="edgeStyle=orthogonalEdgeStyle;shape=connector;rounded=0;orthogonalLoop=1;jettySize=auto;html=1;strokeColor=default;align=center;verticalAlign=middle;fontFamily=Helvetica;fontSize=11;fontColor=default;labelBackgroundColor=default;endArrow=classic;exitX=0.25;exitY=0;exitDx=0;exitDy=0;entryX=1;entryY=0.5;entryDx=0;entryDy=0;strokeWidth=2;" edge="1" parent="1" source="aCSEr7v2NFr17Zk5pdoT-4" target="aCSEr7v2NFr17Zk5pdoT-18">
          <mxGeometry relative="1" as="geometry" />
        </mxCell>
        <mxCell id="aCSEr7v2NFr17Zk5pdoT-18" value="General&lt;div&gt;parser&lt;/div&gt;" style="rhombus;whiteSpace=wrap;html=1;fontFamily=Helvetica;fontSize=18;fontColor=default;labelBackgroundColor=default;" vertex="1" parent="1">
          <mxGeometry x="600" y="220" width="120" height="120" as="geometry" />
        </mxCell>
        <mxCell id="aCSEr7v2NFr17Zk5pdoT-29" style="edgeStyle=none;shape=connector;rounded=0;orthogonalLoop=1;jettySize=auto;html=1;strokeColor=default;align=center;verticalAlign=middle;fontFamily=Helvetica;fontSize=11;fontColor=default;labelBackgroundColor=default;endArrow=classic;" edge="1" parent="1" source="aCSEr7v2NFr17Zk5pdoT-27" target="aCSEr7v2NFr17Zk5pdoT-12">
          <mxGeometry relative="1" as="geometry" />
        </mxCell>
        <mxCell id="aCSEr7v2NFr17Zk5pdoT-52" style="edgeStyle=none;shape=connector;rounded=0;orthogonalLoop=1;jettySize=auto;html=1;strokeColor=default;align=center;verticalAlign=middle;fontFamily=Helvetica;fontSize=11;fontColor=default;labelBackgroundColor=default;endArrow=classic;" edge="1" parent="1" source="aCSEr7v2NFr17Zk5pdoT-27" target="aCSEr7v2NFr17Zk5pdoT-51">
          <mxGeometry relative="1" as="geometry" />
        </mxCell>
        <mxCell id="aCSEr7v2NFr17Zk5pdoT-27" value="1 not both" style="shape=parallelogram;perimeter=parallelogramPerimeter;whiteSpace=wrap;html=1;fixedSize=1;fontFamily=Helvetica;fontSize=15;fontColor=default;labelBackgroundColor=default;" vertex="1" parent="1">
          <mxGeometry x="1040" y="570" width="120" height="60" as="geometry" />
        </mxCell>
        <mxCell id="aCSEr7v2NFr17Zk5pdoT-51" value="auto suffix" style="ellipse;whiteSpace=wrap;html=1;fontFamily=Helvetica;fontSize=14;fontColor=default;labelBackgroundColor=default;" vertex="1" parent="1">
          <mxGeometry x="970" y="660" width="120" height="80" as="geometry" />
        </mxCell>
        <mxCell id="aCSEr7v2NFr17Zk5pdoT-53" value="adjust time&lt;div&gt;with questions&lt;/div&gt;" style="ellipse;whiteSpace=wrap;html=1;fontFamily=Helvetica;fontSize=14;fontColor=default;labelBackgroundColor=default;" vertex="1" parent="1">
          <mxGeometry x="230" y="660" width="120" height="80" as="geometry" />
        </mxCell>
        <mxCell id="aCSEr7v2NFr17Zk5pdoT-54" style="edgeStyle=none;shape=connector;rounded=0;orthogonalLoop=1;jettySize=auto;html=1;strokeColor=default;align=center;verticalAlign=middle;fontFamily=Helvetica;fontSize=11;fontColor=default;labelBackgroundColor=default;endArrow=classic;" edge="1" parent="1" source="aCSEr7v2NFr17Zk5pdoT-56" target="aCSEr7v2NFr17Zk5pdoT-53">
          <mxGeometry relative="1" as="geometry" />
        </mxCell>
        <mxCell id="aCSEr7v2NFr17Zk5pdoT-58" style="edgeStyle=none;shape=connector;rounded=0;orthogonalLoop=1;jettySize=auto;html=1;strokeColor=default;align=center;verticalAlign=middle;fontFamily=Helvetica;fontSize=11;fontColor=default;labelBackgroundColor=default;endArrow=classic;" edge="1" parent="1" source="aCSEr7v2NFr17Zk5pdoT-56" target="aCSEr7v2NFr17Zk5pdoT-14">
          <mxGeometry relative="1" as="geometry" />
        </mxCell>
        <mxCell id="aCSEr7v2NFr17Zk5pdoT-56" value="1 not both" style="shape=parallelogram;perimeter=parallelogramPerimeter;whiteSpace=wrap;html=1;fixedSize=1;fontFamily=Helvetica;fontSize=15;fontColor=default;labelBackgroundColor=default;" vertex="1" parent="1">
          <mxGeometry x="130" y="570" width="120" height="60" as="geometry" />
        </mxCell>
        <mxCell id="aCSEr7v2NFr17Zk5pdoT-59" style="edgeStyle=none;shape=connector;rounded=0;orthogonalLoop=1;jettySize=auto;html=1;entryX=0.65;entryY=0;entryDx=0;entryDy=0;entryPerimeter=0;strokeColor=default;align=center;verticalAlign=middle;fontFamily=Helvetica;fontSize=11;fontColor=default;labelBackgroundColor=default;endArrow=classic;" edge="1" parent="1" source="aCSEr7v2NFr17Zk5pdoT-2" target="aCSEr7v2NFr17Zk5pdoT-56">
          <mxGeometry relative="1" as="geometry" />
        </mxCell>
      </root>
    </mxGraphModel>
  </diagram>
</mxfile>
